<?xml version="1.0" encoding="utf-8"?>
<!-- Generator: Adobe Illustrator 15.0.0, SVG Export Plug-In . SVG Version: 6.00 Build 0)  -->
<!DOCTYPE svg PUBLIC "-//W3C//DTD SVG 1.1//EN" "http://www.w3.org/Graphics/SVG/1.1/DTD/svg11.dtd">
<svg version="1.1" id="Capa_1" xmlns="http://www.w3.org/2000/svg" xmlns:xlink="http://www.w3.org/1999/xlink" x="0px" y="0px"
	 width="609.062px" height="378.575px" viewBox="0 0 609.062 378.575" enable-background="new 0 0 609.062 378.575"
	 xml:space="preserve">
<path fill-rule="evenodd" clip-rule="evenodd" fill="#C6742F" d="M387.829,24.575c0.565,0,1.132,0,1.698,0
	c-1.286,0-7.402,9.381-8.645,10.708c-3.387,3.613-7.118,6.879-10.993,9.956c-8.273,6.566-17.167,12.304-26.036,18.021
	c-17.762,11.447-35.918,22.385-50.097,38.326c-6.985,7.853-13.913,19.076-14.543,29.919c0.184-3.169,6.557-7.8,8.624-9.915
	c3.711-3.798,7.39-7.623,11.233-11.291c7.662-7.312,15.916-14.125,25.393-18.965c19.946-10.187,41.065-12.84,63.12-14.745
	c19.211-1.66,46.111-15.598,64.787-7.013c-8.828,3.78-17.654,7.563-26.482,11.34c-6.555,2.804-13.098,5.726-19.981,7.639
	c-7.142,1.984-14.51,2.451-21.855,3.188c-5.969,0.598-12.45,0.559-18.302,1.834c-35.949,7.836-59.508,19.119-76.431,49
	c-2.993,5.284-6.729,10.117-9.521,15.52c-1.539,2.979-2.783,6.094-3.617,9.344c-0.521,2.033-2.312,7.324-0.876,9.215
	c-1.163-1.532,7.904-12.03,8.742-13.146c10.258-13.653,21.719-25.651,36.52-34.36c14.572-8.574,30.9-16.426,47.934-18.001
	c10.006-0.925,21.486-0.21,31.218,2.429c30.789,8.351,58.165,25.509,91.716,32c0,0.334,0,0.667,0,1
	c-45.157,3.273-61.255-9.795-95.113-18c-52.666-12.764-119.136,41.927-127.383,80c-0.283,0-0.566,0-0.85,0c0-2.333,0-4.667,0-7
	c-0.566,0.334-1.131,0.667-1.698,1c-2.15,5.264-4.666,6.122-5.944,13c-0.284,0-0.566,0-0.85,0c-0.194-20.416,5.92-43.947,5.096-56
	C257.994,61.767,346.681,65.663,387.829,24.575z"/>
<path fill-rule="evenodd" clip-rule="evenodd" fill="#851C1F" d="M233.27,203.575c-0.01-42.645,5.279-97.793-2.548-135
	c-4.943-4.025-9.278-5.442-18.682-5c-11.335,0.636-22.715,0.75-34,2.09c-10.933,1.298-21.681,4.013-32.455,6.22
	c-6.291,1.288-12.594,2.523-18.924,3.604c-15.208,2.597-30.472,3.016-45.741,4.878c-3.896,0.475-7.807,1.09-11.598,2.126
	c-1.268,0.347-10.057,2.645-10.142,4.082c-1.005,16.957-0.743,34.066-4.268,50.766c-3.606,17.086-7.586,34.102-11.358,51.152
	c-2.143,9.685-4.068,19.454-6.455,29.082c-2.444,9.859-5.29,32.667,0.85,40c6.621,7.908,37.787,1.002,50.954,1
	c31.701,0.334,63.412,0.667,95.113,1c8.89-1.668,17.905-2.716,26.939-3.145c4.524-0.214,9.094-0.379,13.622-0.193
	c3.062,0.126,6.883,1.201,9.19-1.457c5.486-6.319,4.436-15.339,3.295-23.005C235.666,222.395,233.271,213.113,233.27,203.575z
	 M48.139,244.575c0.432-54.927,23.589-88.506,22.93-147c49.738-6.451,93.662-18.165,148.614-18c0.566,39.996,1.132,80.004,1.699,120
	c-13.518-7.273-34.534-15.445-40.763,7c-6.609,23.814,17.093,26.397,29.723,22c0.565-1.333,1.132-2.667,1.699-4
	c0.283-2.999,0.565-6,0.849-9c-3.156-3.367-4.655-6.127-9.341-8c0-0.333,0-0.666,0-1c19.199,5.96,15.369,25.607,21.231,47
	C176.548,238.878,106.695,244.184,48.139,244.575z"/>
<path fill-rule="evenodd" clip-rule="evenodd" fill="#851C1F" d="M161.086,142.575c7.278-0.183,9.16,2.861,9.341,8
	c-2.035,2.73-3.631,4.6-5.944,7c0.566,0.666,1.132,1.334,1.699,2c2.457,2.453,5.844-0.057,8.491,3
	c9.328,10.771-19.908,23.419-26.325,25c0,0.334,0,0.667,0,1c2.547,0.666,5.095,1.334,7.643,2c0,0.334,0,0.667,0,1
	c-14.028,1.906-27.774,7.515-44.159,9c0.565-1,1.132-2,1.698-3c4.246-2.333,8.492-4.667,12.738-7
	c-7.925,0.334-15.853,0.667-23.778,1c-0.799,7.184-2.064,8.508-6.794,11c-6.14-4.367-4.827-8.992-15.286-9c-1.981,0-3.963,0-5.944,0
	c0.566,0,1.133,0,1.698,0c5.095-2.999,10.191-6,15.286-9c0.482-11.945,9.798-66.598,15.286-71c9.331-7.484,85.658-16.482,86.621-14
	c3.794-0.807,5.754-0.24,7.643,4c0.283,1.666,0.566,3.334,0.85,5c-2.264,2.333-4.53,4.667-6.794,7
	c2.315,25.816-4.428,45.173-7.644,66c-0.565-0.333-1.132-0.666-1.698-1c-0.529-21.69,0.771-43.937,1.698-64
	c-2.264,1-4.529,2-6.793,3c0.646,11.506-13.891,10.746-19.532,18C161.086,139.241,161.086,140.909,161.086,142.575z"/>
<path fill-rule="evenodd" clip-rule="evenodd" fill="none" d="M121.172,123.575c-2.264,1-4.53,2-6.794,3c-0.283,1-0.566,2-0.849,3
	c0.283,0,0.566,0,0.849,0c3.113-2,6.228-4,9.341-6C122.871,123.575,122.021,123.575,121.172,123.575z"/>
<path fill-rule="evenodd" clip-rule="evenodd" fill="#C6742F" d="M353.07,152.392c20.541-1.551,40.552,1.943,60.011,9.8
	c19.566,7.9,37.089,18.734,55.512,28.831c10.482,5.745,21.669,10.804,33.032,14.552c0,0.334,0,0.667,0,1
	c-62.618-0.319-101.663-59.844-171.543-35c-24.345,8.655-40.668,27.987-58.597,44c2.243-12.008,8.696-23.356,16.949-32.18
	c8.023-8.577,17.47-17.399,28.181-22.462c6.861-3.244,14.536-5.207,21.971-6.618C343.442,153.393,348.271,152.755,353.07,152.392z"
	/>
<path fill-rule="evenodd" clip-rule="evenodd" fill="none" d="M107.584,169.575c-0.849,3.333-1.698,6.667-2.547,10
	c0.283,0,0.566,0,0.849,0c3.265-1.581,4.012-1.998,5.945-5C110.369,171.991,110.038,171.167,107.584,169.575z"/>
<path fill-rule="evenodd" clip-rule="evenodd" fill="none" d="M267.239,188.575c-1.132,4-2.266,8.001-3.397,12
	c0.283,0,0.566,0,0.85,0C265.963,196.256,268.215,192.581,267.239,188.575z"/>
<path fill-rule="evenodd" clip-rule="evenodd" fill="#C6742F" d="M369.164,194.208c22.824-0.674,45.124,2.588,67.694,9.334
	c7.669,2.292,15.352,5.261,23.154,7.032c23.493,5.333,46.992,10.667,70.485,16c0,0.334,0,0.667,0,1
	c-18.063,0.01-34.056,5.7-52.651,2c-24.512-4.877-45.893-15.081-67.938-20c-44.778-9.99-129.666,12.998-141.822,40
	c-1.205-17.163,10.915-29.769,25.209-36.588c15.483-7.386,32.628-13.572,49.588-16.282
	C351.749,195.289,360.494,194.464,369.164,194.208z"/>
<path fill-rule="evenodd" clip-rule="evenodd" fill="none" d="M196.753,217.575c1.838,2.825,2.759,3.517,5.945,2
	C200.717,218.909,198.734,218.241,196.753,217.575z"/>
<path fill-rule="evenodd" clip-rule="evenodd" fill="#C6742F" d="M333.636,244.333c2.063-0.439,4.141-0.796,6.249-0.984
	c6.079-0.542,12.23,0.269,18.315,0.387c8.107,0.157,16.212,0.408,24.313,0.739c16.413,0.673,32.812,1.664,49.194,2.853
	c32.355,2.348,64.649,5.424,96.969,8.214c8.693,0.75,17.389,1.483,26.089,2.165c2.479,0.195,25.292,3.15,25.837,1.869
	c-0.283,0.666-0.566,1.334-0.85,2c-60.171,5.175-135.113,8.223-195.321-3c-29.369-5.475-69.687,5.471-94.264-6
	c6.792-1.498,13.764-2.222,20.623-3.344c3.962-0.647,7.923-1.346,11.84-2.23C326.306,246.17,329.947,245.119,333.636,244.333z"/>
<g>
	<rect x="27.603" y="280.575" fill-rule="evenodd" clip-rule="evenodd" fill="none" width="679" height="98"/>
	<path fill="#851C1F" d="M35.612,284.897c3.87-0.721,8.729-1.351,14.669-1.351c20.969,0,23.309,13.14,23.309,19.259
		c0,16.56-13.68,21.42-24.659,21.42c-2.88,0-5.49-0.09-7.83-0.721v28.889h-5.49V284.897z M41.102,318.735
		c2.16,0.721,4.95,0.9,8.1,0.9c11.7,0,18.809-5.76,18.809-16.289c0-10.891-7.919-15.21-17.819-15.21c-4.14,0-7.29,0.36-9.089,0.81
		V318.735z"/>
	<path fill="#851C1F" d="M134.52,352.393h-5.85l-8.1-23.398H94.741l-8.01,23.398h-5.67l23.849-68.307h5.76L134.52,352.393z
		 M119.13,324.495l-7.74-22.049c-1.53-4.77-2.61-8.73-3.6-12.689h-0.27c-0.9,4.05-2.07,8.01-3.51,12.329l-7.83,22.409H119.13z"/>
	<path fill="#851C1F" d="M169.71,319.456c5.49,1.709,8.819,6.93,10.439,14.578c2.25,10.35,3.6,15.66,5.04,18.359h-5.76
		c-1.08-1.979-2.61-8.01-4.41-16.648c-2.07-9.721-6.12-14.4-14.85-14.4h-9.81v31.049h-5.49v-67.406c4.14-0.9,9.9-1.44,14.85-1.44
		c8.819,0,14.399,1.8,18.269,5.579c2.97,2.971,4.86,7.471,4.86,12.42c0,9.18-5.4,15.029-13.139,17.729V319.456z M160.44,316.935
		c10.17,0,16.83-5.76,16.83-14.579c0-11.43-9.09-14.31-17.639-14.31c-4.41,0-7.65,0.36-9.27,0.81v28.079H160.44z"/>
	<path fill="#851C1F" d="M244.138,352.393h-5.85l-8.1-23.398H204.36l-8.01,23.398h-5.67l23.849-68.307h5.76L244.138,352.393z
		 M228.749,324.495l-7.74-22.049c-1.53-4.77-2.61-8.73-3.6-12.689h-0.27c-0.9,4.05-2.07,8.01-3.51,12.329l-7.83,22.409H228.749z"/>
	<path fill="#851C1F" d="M254.49,285.077c5.13-0.9,10.89-1.53,17.189-1.53c27.719,0,35.458,16.649,35.458,33.028
		c0,13.23-4.68,36.359-37.799,36.359c-5.31,0-10.169-0.09-14.849-0.631V285.077z M260.07,347.803
		c2.61,0.451,6.21,0.541,10.169,0.541c20.52,0,31.139-11.609,31.139-31.499c0-18.27-10.08-28.709-29.789-28.709
		c-4.95,0-8.819,0.54-11.52,1.08V347.803z"/>
	<path fill="#851C1F" d="M318.929,284.086h5.58v68.307h-5.58V284.086z"/>
	<path fill="#851C1F" d="M404.516,352.393h-5.489l-1.98-31.948c-0.63-10.169-1.35-22.409-1.26-30.059h-0.27
		c-2.34,7.56-5.221,15.659-8.91,25.559l-13.59,36.358h-3.959l-12.689-35.458c-3.69-10.44-6.48-18.81-8.461-26.459h-0.27
		c-0.18,8.1-0.72,19.799-1.439,30.958l-2.07,31.049h-5.399l4.859-68.307h6.569l13.77,37.889c3.15,8.729,5.4,15.568,7.29,22.408h0.36
		c1.71-6.569,4.05-13.318,7.379-22.318l14.221-37.979h6.839L404.516,352.393z"/>
	<path fill="#851C1F" d="M466.886,352.393h-5.85l-8.1-23.398h-25.828l-8.01,23.398h-5.67l23.849-68.307h5.76L466.886,352.393z
		 M451.497,324.495l-7.74-22.049c-1.529-4.77-2.609-8.73-3.6-12.689h-0.27c-0.9,4.05-2.07,8.01-3.51,12.329l-7.83,22.409H451.497z"
		/>
	<path fill="#851C1F" d="M525.656,349.514c-3.42,1.439-10.53,3.6-19.439,3.6c-24.389,0-33.208-17.369-33.208-34.559
		c0-19.799,12.779-35.189,35.098-35.189c6.48,0,12.33,1.351,15.66,2.971l-1.62,4.59c-3.42-1.62-7.92-2.88-14.31-2.88
		c-17.819,0-29.068,11.52-29.068,30.148c0,19.169,10.979,30.329,28.078,30.329c6.66,0,10.98-1.08,13.32-2.34v-23.489h-15.12v-4.59
		h20.609V349.514z"/>
	<path fill="#851C1F" d="M574.706,352.393h-35.278v-68.307h33.749v4.68h-28.17v25.379h26.549v4.68h-26.549v28.889h29.699V352.393z"
		/>
</g>
</svg>
